<svg id="visual" viewBox="0 0 960 540" width="960" height="540" xmlns="http://www.w3.org/2000/svg" xmlns:xlink="http://www.w3.org/1999/xlink" version="1.1"><rect x="0" y="0" width="960" height="540" fill="#24252a"></rect><path d="M358 0L356.5 12.8C355 25.7 352 51.3 352.8 77C353.7 102.7 358.3 128.3 365.2 154C372 179.7 381 205.3 370.7 231.2C360.3 257 330.7 283 319.5 308.8C308.3 334.7 315.7 360.3 319 386C322.3 411.7 321.7 437.3 317.2 463C312.7 488.7 304.3 514.3 300.2 527.2L296 540L0 540L0 527.2C0 514.3 0 488.7 0 463C0 437.3 0 411.7 0 386C0 360.3 0 334.7 0 308.8C0 283 0 257 0 231.2C0 205.3 0 179.7 0 154C0 128.3 0 102.7 0 77C0 51.3 0 25.7 0 12.8L0 0Z" fill="#24252a"></path><path d="M318 0L305.3 12.8C292.7 25.7 267.3 51.3 264.7 77C262 102.7 282 128.3 293 154C304 179.7 306 205.3 301.8 231.2C297.7 257 287.3 283 280.5 308.8C273.7 334.7 270.3 360.3 263.7 386C257 411.7 247 437.3 245.3 463C243.7 488.7 250.3 514.3 253.7 527.2L257 540L0 540L0 527.2C0 514.3 0 488.7 0 463C0 437.3 0 411.7 0 386C0 360.3 0 334.7 0 308.8C0 283 0 257 0 231.2C0 205.3 0 179.7 0 154C0 128.3 0 102.7 0 77C0 51.3 0 25.7 0 12.8L0 0Z" fill="#1e2a56"></path><path d="M227 0L226.8 12.8C226.7 25.7 226.3 51.3 231.7 77C237 102.7 248 128.3 250.5 154C253 179.7 247 205.3 240.2 231.2C233.3 257 225.7 283 213 308.8C200.3 334.7 182.7 360.3 183 386C183.3 411.7 201.7 437.3 217 463C232.3 488.7 244.7 514.3 250.8 527.2L257 540L0 540L0 527.2C0 514.3 0 488.7 0 463C0 437.3 0 411.7 0 386C0 360.3 0 334.7 0 308.8C0 283 0 257 0 231.2C0 205.3 0 179.7 0 154C0 128.3 0 102.7 0 77C0 51.3 0 25.7 0 12.8L0 0Z" fill="#172c81"></path><path d="M129 0L133.3 12.8C137.7 25.7 146.3 51.3 152.7 77C159 102.7 163 128.3 155.2 154C147.3 179.7 127.7 205.3 124.7 231.2C121.7 257 135.3 283 140.8 308.8C146.3 334.7 143.7 360.3 142.7 386C141.7 411.7 142.3 437.3 142.2 463C142 488.7 141 514.3 140.5 527.2L140 540L0 540L0 527.2C0 514.3 0 488.7 0 463C0 437.3 0 411.7 0 386C0 360.3 0 334.7 0 308.8C0 283 0 257 0 231.2C0 205.3 0 179.7 0 154C0 128.3 0 102.7 0 77C0 51.3 0 25.7 0 12.8L0 0Z" fill="#2926a9"></path><path d="M103 0L103.7 12.8C104.3 25.7 105.7 51.3 102.5 77C99.3 102.7 91.7 128.3 93.3 154C95 179.7 106 205.3 109 231.2C112 257 107 283 107.7 308.8C108.3 334.7 114.7 360.3 114.7 386C114.7 411.7 108.3 437.3 98.8 463C89.3 488.7 76.7 514.3 70.3 527.2L64 540L0 540L0 527.2C0 514.3 0 488.7 0 463C0 437.3 0 411.7 0 386C0 360.3 0 334.7 0 308.8C0 283 0 257 0 231.2C0 205.3 0 179.7 0 154C0 128.3 0 102.7 0 77C0 51.3 0 25.7 0 12.8L0 0Z" fill="#5200cc"></path></svg>