<svg id="visual" viewBox="0 0 960 540" width="960" height="540" xmlns="http://www.w3.org/2000/svg" xmlns:xlink="http://www.w3.org/1999/xlink" version="1.1"><rect x="0" y="0" width="960" height="540" fill="#24252a"></rect><path d="M0 338L22.8 338.8C45.7 339.7 91.3 341.3 137 340.8C182.7 340.3 228.3 337.7 274 333.8C319.7 330 365.3 325 411.2 330.8C457 336.7 503 353.3 548.8 359.7C594.7 366 640.3 362 686 360.2C731.7 358.3 777.3 358.7 823 361.2C868.7 363.7 914.3 368.3 937.2 370.7L960 373L960 541L937.2 541C914.3 541 868.7 541 823 541C777.3 541 731.7 541 686 541C640.3 541 594.7 541 548.8 541C503 541 457 541 411.2 541C365.3 541 319.7 541 274 541C228.3 541 182.7 541 137 541C91.3 541 45.7 541 22.8 541L0 541Z" fill="#24252a"></path><path d="M0 361L22.8 368C45.7 375 91.3 389 137 390.5C182.7 392 228.3 381 274 374.8C319.7 368.7 365.3 367.3 411.2 369.7C457 372 503 378 548.8 381.8C594.7 385.7 640.3 387.3 686 391C731.7 394.7 777.3 400.3 823 401.3C868.7 402.3 914.3 398.7 937.2 396.8L960 395L960 541L937.2 541C914.3 541 868.7 541 823 541C777.3 541 731.7 541 686 541C640.3 541 594.7 541 548.8 541C503 541 457 541 411.2 541C365.3 541 319.7 541 274 541C228.3 541 182.7 541 137 541C91.3 541 45.7 541 22.8 541L0 541Z" fill="#1e2a56"></path><path d="M0 412L22.8 412C45.7 412 91.3 412 137 409C182.7 406 228.3 400 274 398.7C319.7 397.3 365.3 400.7 411.2 404.5C457 408.3 503 412.7 548.8 419.8C594.7 427 640.3 437 686 436.8C731.7 436.7 777.3 426.3 823 417.7C868.7 409 914.3 402 937.2 398.5L960 395L960 541L937.2 541C914.3 541 868.7 541 823 541C777.3 541 731.7 541 686 541C640.3 541 594.7 541 548.8 541C503 541 457 541 411.2 541C365.3 541 319.7 541 274 541C228.3 541 182.7 541 137 541C91.3 541 45.7 541 22.8 541L0 541Z" fill="#172c81"></path><path d="M0 467L22.8 464.7C45.7 462.3 91.3 457.7 137 454.2C182.7 450.7 228.3 448.3 274 452.7C319.7 457 365.3 468 411.2 469.5C457 471 503 463 548.8 459.8C594.7 456.7 640.3 458.3 686 459C731.7 459.7 777.3 459.3 823 459.5C868.7 459.7 914.3 460.3 937.2 460.7L960 461L960 541L937.2 541C914.3 541 868.7 541 823 541C777.3 541 731.7 541 686 541C640.3 541 594.7 541 548.8 541C503 541 457 541 411.2 541C365.3 541 319.7 541 274 541C228.3 541 182.7 541 137 541C91.3 541 45.7 541 22.8 541L0 541Z" fill="#2926a9"></path><path d="M0 481L22.8 480.7C45.7 480.3 91.3 479.7 137 481.5C182.7 483.3 228.3 487.7 274 486.8C319.7 486 365.3 480 411.2 478.3C457 476.7 503 479.3 548.8 479C594.7 478.7 640.3 475.3 686 475.3C731.7 475.3 777.3 478.7 823 483.8C868.7 489 914.3 496 937.2 499.5L960 503L960 541L937.2 541C914.3 541 868.7 541 823 541C777.3 541 731.7 541 686 541C640.3 541 594.7 541 548.8 541C503 541 457 541 411.2 541C365.3 541 319.7 541 274 541C228.3 541 182.7 541 137 541C91.3 541 45.7 541 22.8 541L0 541Z" fill="#5200cc"></path></svg>